<svg width="24" height="24" viewBox="0 0 24 24" fill="none" xmlns="http://www.w3.org/2000/svg">
<g clip-path="url(#clip0)">
<path d="M19.246 0H9.16306C7.69844 0 6.50682 1.19162 6.50682 2.65625V2.98225H4.75C3.28537 2.98225 2.09375 4.17387 2.09375 5.6385V21.3439C2.09375 22.8085 3.28537 24.0001 4.75 24.0001H14.833C16.2976 24.0001 17.4891 22.8085 17.4891 21.3439V21.0179H19.2459C20.7106 21.0179 21.9022 19.8262 21.9022 18.3616V2.65625C21.9023 1.19162 20.7107 0 19.246 0ZM15.7758 21.3439C15.7758 21.8637 15.3528 22.2867 14.8331 22.2867H4.75C4.23015 22.2867 3.80716 21.8637 3.80716 21.3439V5.63838C3.80716 5.11853 4.23015 4.69555 4.75 4.69555H14.833C15.3528 4.69555 15.7757 5.11853 15.7757 5.63838V21.3439H15.7758ZM20.1889 18.3616C20.1889 18.8815 19.7659 19.3044 19.246 19.3044H17.4892V5.63838C17.4892 4.17376 16.2976 2.98214 14.8331 2.98214H8.22023V2.65613C8.22023 2.13628 8.64321 1.7133 9.16306 1.7133H19.246C19.7659 1.7133 20.1889 2.13628 20.1889 2.65613V18.3616Z" fill="#1D1D1B"/>
</g>
<defs>
<clipPath id="clip0">
<rect width="24" height="24" fill="white"/>
</clipPath>
</defs>
</svg>
