<svg width="60" height="60" viewBox="0 0 60 60" fill="none" xmlns="http://www.w3.org/2000/svg">
<circle opacity="0.2" cx="30" cy="30" r="30" fill="url(#paint0_linear_31311_7270)"/>
<path d="M43.5558 29.4272V16.6254C43.5558 16.6254 39.0725 12.4294 38.4541 11.6523H15.7285V29.4272V48.9337H43.5558V29.4272Z" fill="#202231"/>
<rect x="25.7764" y="34.3535" width="11.2476" height="6.76327" transform="rotate(-44.0963 25.7764 34.3535)" fill="url(#paint1_linear_31311_7270)"/>
<path fill-rule="evenodd" clip-rule="evenodd" d="M29.642 38.1214C33.917 38.1214 37.3826 34.6558 37.3826 30.3807C37.3826 26.1057 33.917 22.6401 29.642 22.6401C25.367 22.6401 21.9014 26.1057 21.9014 30.3807C21.9014 34.6558 25.367 38.1214 29.642 38.1214ZM29.642 39.1214C32.1765 39.1214 34.4591 38.0426 36.0556 36.3191L37.1085 37.4084C36.9659 37.7936 37.0529 38.2434 37.3663 38.5481L42.7387 43.7698C43.1625 44.1818 43.8401 44.1722 44.2521 43.7483C44.6641 43.3245 44.6545 42.6469 44.2306 42.2349L38.8582 37.0131C38.5522 36.7157 38.1139 36.638 37.7389 36.7773L36.6308 35.6308C37.7307 34.169 38.3826 32.351 38.3826 30.3807C38.3826 25.5534 34.4693 21.6401 29.642 21.6401C24.8147 21.6401 20.9014 25.5534 20.9014 30.3807C20.9014 35.208 24.8147 39.1214 29.642 39.1214Z" fill="url(#paint2_linear_31311_7270)"/>
<rect x="33.4502" y="25.9854" width="0.891899" height="11.5947" rx="0.445949" transform="rotate(45.4059 33.4502 25.9854)" fill="url(#paint3_linear_31311_7270)"/>
<rect x="25.248" y="26.5581" width="0.891899" height="11.5947" rx="0.445949" transform="rotate(-44.5941 25.248 26.5581)" fill="url(#paint4_linear_31311_7270)"/>
<defs>
<linearGradient id="paint0_linear_31311_7270" x1="1.58491" y1="3.63905" x2="69.7026" y2="26.0816" gradientUnits="userSpaceOnUse">
<stop stop-color="#2B7BEA"/>
<stop offset="1" stop-color="#B813F2"/>
</linearGradient>
<linearGradient id="paint1_linear_31311_7270" x1="31.4001" y1="34.3535" x2="30.9416" y2="39.733" gradientUnits="userSpaceOnUse">
<stop stop-color="#850DAF" stop-opacity="0.22"/>
<stop offset="0.499676" stop-color="#850DAF" stop-opacity="0.13"/>
<stop offset="1" stop-color="#850DAF" stop-opacity="0"/>
</linearGradient>
<linearGradient id="paint2_linear_31311_7270" x1="21.5262" y1="23.0007" x2="48.0891" y2="32.2286" gradientUnits="userSpaceOnUse">
<stop stop-color="#2B7BEA"/>
<stop offset="1" stop-color="#B813F2"/>
</linearGradient>
<linearGradient id="paint3_linear_31311_7270" x1="33.4738" y1="26.6886" x2="34.5955" y2="26.717" gradientUnits="userSpaceOnUse">
<stop stop-color="#2B7BEA"/>
<stop offset="1" stop-color="#B813F2"/>
</linearGradient>
<linearGradient id="paint4_linear_31311_7270" x1="25.2716" y1="27.2613" x2="26.3934" y2="27.2898" gradientUnits="userSpaceOnUse">
<stop stop-color="#2B7BEA"/>
<stop offset="1" stop-color="#B813F2"/>
</linearGradient>
</defs>
</svg>
