<svg width="25" height="25" viewBox="0 0 25 25" fill="none" xmlns="http://www.w3.org/2000/svg">
<path d="M10.5797 19.8234L10.5635 15.7834C10.5572 14.1935 9.91463 13.556 8.32464 13.5624L4.28467 13.5785C2.69468 13.5848 2.05724 14.2274 2.06359 15.8174L2.07972 19.8574C2.08607 21.4473 2.72862 22.0848 4.31861 22.0784L8.35858 22.0623C9.94857 22.0559 10.586 21.4134 10.5797 19.8234Z" stroke="#A7A9AD" stroke-width="1.5" stroke-linecap="round" stroke-linejoin="round"/>
<path d="M15.0625 15.5356L21.0625 15.5117" stroke="#A7A9AD" stroke-width="1.5" stroke-linecap="round"/>
<path d="M15.0781 19.5356L21.0781 19.5117" stroke="#A7A9AD" stroke-width="1.5" stroke-linecap="round"/>
<path d="M10.5328 8.3239L10.5166 4.28393C10.5103 2.69394 9.86775 2.0565 8.27776 2.06285L4.23779 2.07899C2.64781 2.08534 2.01037 2.72789 2.01672 4.31787L2.03285 8.35784C2.0392 9.94783 2.68175 10.5853 4.27174 10.5789L8.3117 10.5628C9.90169 10.5564 10.5391 9.91389 10.5328 8.3239Z" stroke="#A7A9AD" stroke-width="1.5" stroke-linecap="round" stroke-linejoin="round"/>
<path d="M15.0156 4.03564L21.0156 4.01169" stroke="#A7A9AD" stroke-width="1.5" stroke-linecap="round"/>
<path d="M15.0312 8.03564L21.0312 8.01169" stroke="#A7A9AD" stroke-width="1.5" stroke-linecap="round"/>
</svg>
