<svg width="22" height="22" viewBox="0 0 22 22" fill="none" xmlns="http://www.w3.org/2000/svg">
<path d="M10.9998 16.9584C14.2905 16.9584 16.9582 14.2907 16.9582 11C16.9582 7.70932 14.2905 5.04169 10.9998 5.04169C7.70914 5.04169 5.0415 7.70932 5.0415 11C5.0415 14.2907 7.70914 16.9584 10.9998 16.9584Z" stroke="#A7A9AD" stroke-width="1.5" stroke-linecap="round" stroke-linejoin="round"/>
<path d="M17.5452 17.545L17.426 17.4258M17.426 4.57415L17.5452 4.45498L17.426 4.57415ZM4.45516 17.545L4.57433 17.4258L4.45516 17.545ZM11.0002 1.90665V1.83331V1.90665ZM11.0002 20.1666V20.0933V20.1666ZM1.90683 11H1.8335H1.90683ZM20.1668 11H20.0935H20.1668ZM4.57433 4.57415L4.45516 4.45498L4.57433 4.57415Z" stroke="#A7A9AD" stroke-width="2" stroke-linecap="round" stroke-linejoin="round"/>
</svg>
