<svg width="24" height="24" viewBox="0 0 24 24" fill="none" xmlns="http://www.w3.org/2000/svg">
<g clip-path="url(#clip0_2_3553)">
<path opacity="0.2" d="M17.2391 6.68829C17.5831 6.9774 18.0201 7.13635 18.4684 7.13635C19.0372 7.13635 19.5726 6.88686 19.9383 6.45184C20.6174 5.64257 20.5113 4.4315 19.7021 3.7519C19.3576 3.46279 18.9206 3.30359 18.4718 3.30359C17.9032 3.30359 17.3678 3.55309 17.0026 3.98811C16.3233 4.79762 16.4296 6.00845 17.2391 6.68829Z" fill="#3498DB"/>
<path opacity="0.3" d="M21.7625 8.88123C21.6436 8.88123 21.5235 8.89181 21.4062 8.91247C20.3026 9.1071 19.5625 10.1639 19.7571 11.2679C19.9284 12.2411 20.7687 12.9473 21.7548 12.9473C21.8734 12.9473 21.994 12.9367 22.1118 12.9162C23.2154 12.7214 23.9553 11.6648 23.7606 10.5613C23.5889 9.58789 22.7484 8.88123 21.7625 8.88123Z" fill="#3498DB"/>
<path opacity="0.4" d="M21.6917 15.529C21.365 15.34 20.9944 15.2406 20.6204 15.2406C19.8532 15.2406 19.1387 15.6527 18.7556 16.3161C18.4689 16.8129 18.3922 17.3916 18.541 17.9462C18.6899 18.5008 19.0459 18.9646 19.5422 19.2513C19.8692 19.4405 20.2398 19.5401 20.6143 19.5401C21.3809 19.5401 22.0955 19.1282 22.4783 18.4651C23.0703 17.4386 22.7175 16.1215 21.6917 15.529Z" fill="#3498DB"/>
<path opacity="0.5" d="M15.5792 19.3509C15.3159 19.3509 15.0551 19.3971 14.8041 19.4882C14.2358 19.6951 13.7823 20.1112 13.5264 20.6596C13.2707 21.2081 13.2439 21.8232 13.4506 22.3919C13.7754 23.284 14.6312 23.8837 15.5799 23.8837C15.8432 23.8837 16.104 23.8374 16.3542 23.7461C16.9221 23.5392 17.3754 23.1234 17.6315 22.5739C17.8874 22.0252 17.9145 21.4101 17.7083 20.8425C17.384 19.9505 16.528 19.3509 15.5792 19.3509Z" fill="#3498DB"/>
<path opacity="0.6" d="M9.81905 19.3784C9.55479 19.2824 9.28069 19.2337 9.00462 19.2337C8.00714 19.2337 7.10758 19.8641 6.7663 20.8023C6.5483 21.4004 6.5766 22.0473 6.84553 22.6238C7.11422 23.2006 7.59131 23.6378 8.18946 23.8556C8.45323 23.9518 8.72757 24 9.00438 24C10.0024 24 10.9017 23.3696 11.2427 22.4321C11.4602 21.8352 11.4317 21.1883 11.1625 20.6114C10.8931 20.0336 10.4162 19.5959 9.81905 19.3784Z" fill="#3498DB"/>
<path opacity="0.7" d="M6.13095 16.1409C5.6856 15.37 4.85567 14.8914 3.96448 14.8914C3.52872 14.8914 3.09789 15.0076 2.71774 15.2263C2.13952 15.5602 1.72616 16.0995 1.55368 16.7435C1.3807 17.3881 1.46928 18.0616 1.80317 18.6395C2.24852 19.4107 3.0787 19.8895 3.96989 19.8895C4.4054 19.8895 4.83623 19.7734 5.21614 19.5544C6.40899 18.8657 6.8194 17.3342 6.13095 16.1409Z" fill="#3498DB"/>
<path opacity="0.8" d="M2.82862 13.5305C4.09775 13.5305 5.17963 12.6213 5.40059 11.3686C5.52164 10.6804 5.36786 9.98656 4.96705 9.41498C4.56672 8.84266 3.96734 8.46079 3.2789 8.33924C3.12634 8.31267 2.97207 8.29913 2.82124 8.29913C1.55211 8.29913 0.470231 9.20805 0.249277 10.4607C0.128221 11.1484 0.282002 11.8423 0.682818 12.4146C1.08339 12.9867 1.68301 13.3688 2.37097 13.4901C2.52278 13.5169 2.67681 13.5305 2.82862 13.5305Z" fill="#3498DB"/>
<path opacity="0.9" d="M6.11482 7.95207C6.7543 7.95207 7.3773 7.72496 7.86916 7.31282C8.4272 6.84459 8.76946 6.1859 8.83318 5.45808C8.89691 4.73025 8.67399 4.02211 8.20551 3.46406C7.68536 2.84401 6.92186 2.48846 6.11137 2.48846C5.4709 2.48846 4.84791 2.71533 4.35679 3.12746C3.79801 3.59644 3.45501 4.25512 3.39153 4.98196C3.32781 5.70831 3.55097 6.4167 4.02019 6.97598C4.54108 7.59628 5.30433 7.95207 6.11482 7.95207Z" fill="#3498DB"/>
<path d="M12.2916 5.94267C13.9326 5.94267 15.2629 4.61236 15.2629 2.97133C15.2629 1.33031 13.9326 0 12.2916 0C10.6506 0 9.32031 1.33031 9.32031 2.97133C9.32031 4.61236 10.6506 5.94267 12.2916 5.94267Z" fill="#3498DB"/>
</g>
<defs>
<clipPath id="clip0_2_3553">
<rect width="24" height="24" fill="white"/>
</clipPath>
</defs>
</svg>
