<svg width="16" height="16" viewBox="0 0 16 16" fill="none" xmlns="http://www.w3.org/2000/svg">
<path d="M7.97755 0.425C3.83755 0.44 0.48505 3.8075 0.50005 7.9475C0.51505 12.0875 3.88255 15.44 8.02255 15.425C12.1625 15.41 15.515 12.0425 15.5 7.9025C15.4851 3.7625 12.1175 0.4175 7.97755 0.425ZM9.69505 8C10.2801 8.2025 11.0676 8.6375 11.0676 9.98C11.0676 11.135 10.16 12.065 9.05005 12.065H8.56255V12.5C8.56255 12.8075 8.30755 13.0625 8.00005 13.0625C7.69255 13.0625 7.43755 12.8075 7.43755 12.5V12.065H7.16755C5.93755 12.065 4.94005 11.03 4.94005 9.755C4.94005 9.4475 5.19505 9.1925 5.50255 9.1925C5.81005 9.1925 6.06505 9.4475 6.06505 9.755C6.06505 10.4075 6.56005 10.94 7.16755 10.94H7.43755V8.405L6.30505 8C5.72005 7.7975 4.93255 7.3625 4.93255 6.02C4.93255 4.865 5.84005 3.935 6.95005 3.935H7.43755V3.5C7.43755 3.1925 7.69255 2.9375 8.00005 2.9375C8.30755 2.9375 8.56255 3.1925 8.56255 3.5V3.935H8.83255C10.0625 3.935 11.0601 4.97 11.0601 6.245C11.0601 6.5525 10.805 6.8075 10.4976 6.8075C10.1901 6.8075 9.93505 6.5525 9.93505 6.245C9.93505 5.5925 9.44005 5.06 8.83255 5.06H8.56255V7.595L9.69505 8Z" fill="#A7A9AD"/>
</svg>
