<svg width="16" height="17" viewBox="0 0 16 17" fill="none" xmlns="http://www.w3.org/2000/svg">
<circle cx="7.99967" cy="8.49998" r="4.66667" fill="#E5E8E8"/>
<path d="M14.3736 7.66006L13.4669 6.60673C13.2936 6.40673 13.1536 6.03339 13.1536 5.76673V4.63339C13.1536 3.92673 12.5736 3.34673 11.8669 3.34673H10.7336C10.4736 3.34673 10.0936 3.20673 9.89358 3.03339L8.84025 2.12673C8.38025 1.73339 7.62691 1.73339 7.16025 2.12673L6.11358 3.04006C5.91358 3.20673 5.53358 3.34673 5.27358 3.34673H4.12025C3.41358 3.34673 2.83358 3.92673 2.83358 4.63339V5.77339C2.83358 6.03339 2.69358 6.40673 2.52691 6.60673L1.62691 7.66673C1.24025 8.12673 1.24025 8.87339 1.62691 9.33339L2.52691 10.3934C2.69358 10.5934 2.83358 10.9667 2.83358 11.2267V12.3667C2.83358 13.0734 3.41358 13.6534 4.12025 13.6534H5.27358C5.53358 13.6534 5.91358 13.7934 6.11358 13.9667L7.16691 14.8734C7.62691 15.2667 8.38025 15.2667 8.84691 14.8734L9.90025 13.9667C10.1002 13.7934 10.4736 13.6534 10.7402 13.6534H11.8736C12.5802 13.6534 13.1602 13.0734 13.1602 12.3667V11.2334C13.1602 10.9734 13.3002 10.5934 13.4736 10.3934L14.3802 9.34006C14.7669 8.88006 14.7669 8.12006 14.3736 7.66006ZM10.7736 7.24006L7.55358 10.4601C7.46025 10.5534 7.33358 10.6067 7.20025 10.6067C7.06691 10.6067 6.94025 10.5534 6.84691 10.4601L5.23358 8.84673C5.04025 8.65339 5.04025 8.33339 5.23358 8.14006C5.42691 7.94673 5.74691 7.94673 5.94025 8.14006L7.20025 9.40006L10.0669 6.53339C10.2602 6.34006 10.5802 6.34006 10.7736 6.53339C10.9669 6.72673 10.9669 7.04673 10.7736 7.24006Z" fill="#B813F2"/>
</svg>
