<svg width="15" height="15" viewBox="0 0 15 15" fill="none" xmlns="http://www.w3.org/2000/svg">
<path d="M7.38626 3.76008C5.29073 3.76008 3.60046 5.45072 3.60046 7.54673C3.60046 9.64273 5.29073 11.3334 7.38626 11.3334C9.4818 11.3334 11.1721 9.64273 11.1721 7.54673C11.1721 5.45072 9.4818 3.76008 7.38626 3.76008ZM7.38626 10.0085C6.03207 10.0085 4.925 8.90451 4.925 7.54673C4.925 6.18894 6.02878 5.08491 7.38626 5.08491C8.74375 5.08491 9.84753 6.18894 9.84753 7.54673C9.84753 8.90451 8.74045 10.0085 7.38626 10.0085ZM12.2099 3.60519C12.2099 4.09623 11.8146 4.48841 11.3269 4.48841C10.836 4.48841 10.4439 4.09294 10.4439 3.60519C10.4439 3.11744 10.8393 2.72197 11.3269 2.72197C11.8146 2.72197 12.2099 3.11744 12.2099 3.60519ZM14.7173 4.50159C14.6613 3.31847 14.3911 2.27047 13.5246 1.40702C12.6613 0.543575 11.6136 0.273336 10.4307 0.214015C9.21162 0.144807 5.55761 0.144807 4.33851 0.214015C3.15895 0.27004 2.11118 0.540279 1.24464 1.40373C0.378086 2.26717 0.111202 3.31517 0.0518941 4.49829C-0.017298 5.71767 -0.017298 9.37249 0.0518941 10.5919C0.107907 11.775 0.378086 12.823 1.24464 13.6864C2.11118 14.5499 3.15566 14.8201 4.33851 14.8794C5.55761 14.9486 9.21162 14.9486 10.4307 14.8794C11.6136 14.8234 12.6613 14.5532 13.5246 13.6864C14.3879 12.823 14.658 11.775 14.7173 10.5919C14.7865 9.37249 14.7865 5.72096 14.7173 4.50159ZM13.1424 11.9002C12.8854 12.5462 12.3879 13.0438 11.7388 13.3041C10.7668 13.6897 8.46039 13.6007 7.38626 13.6007C6.31214 13.6007 4.00244 13.6864 3.03375 13.3041C2.38795 13.0471 1.89043 12.5494 1.63013 11.9002C1.24464 10.928 1.3336 8.62109 1.3336 7.54673C1.3336 6.47236 1.24793 4.16214 1.63013 3.19324C1.88713 2.5473 2.38466 2.04966 3.03375 1.78931C4.00573 1.40373 6.31214 1.49271 7.38626 1.49271C8.46039 1.49271 10.7701 1.40702 11.7388 1.78931C12.3846 2.04637 12.8821 2.544 13.1424 3.19324C13.5279 4.16544 13.4389 6.47236 13.4389 7.54673C13.4389 8.62109 13.5279 10.9313 13.1424 11.9002Z" fill="#161522"/>
</svg>
