<svg width="15" height="13" viewBox="0 0 15 13" fill="none" xmlns="http://www.w3.org/2000/svg">
<path d="M13.2511 3.22941C13.2605 3.36401 13.2605 3.49865 13.2605 3.63326C13.2605 7.73901 10.2148 12.4698 4.6482 12.4698C2.93323 12.4698 1.34011 11.9602 0 11.0756C0.243664 11.1044 0.477925 11.114 0.730964 11.114C2.14602 11.114 3.44866 10.6237 4.48888 9.78712C3.15815 9.75827 2.04295 8.86404 1.65872 7.63326C1.84616 7.66209 2.03358 7.68133 2.23039 7.68133C2.50215 7.68133 2.77394 7.64285 3.02695 7.57558C1.64 7.28709 0.599743 6.0371 0.599743 4.52749V4.48904C1.0027 4.71981 1.4713 4.86404 1.96795 4.88325C1.15264 4.32554 0.618493 3.37363 0.618493 2.2967C0.618493 1.71979 0.768407 1.19094 1.03082 0.729403C2.52088 2.61402 4.76064 3.84477 7.27214 3.9794C7.2253 3.74863 7.19717 3.50827 7.19717 3.26788C7.19717 1.55632 8.54666 0.162109 10.2241 0.162109C11.0957 0.162109 11.8828 0.537108 12.4358 1.14288C13.1199 1.00827 13.7759 0.748641 14.3569 0.39288C14.132 1.11405 13.654 1.71982 13.0262 2.10441C13.6353 2.03713 14.2257 1.86402 14.7692 1.62366C14.357 2.23902 13.8415 2.78707 13.2511 3.22941Z" fill="white"/>
</svg>
