<svg width="82" height="96" viewBox="0 0 82 96" fill="none" xmlns="http://www.w3.org/2000/svg">
<path d="M70.7112 10.2488L58.398 3.10182L58.2653 3.03035C52.1394 -0.420614 43.7468 0.0796779 34.4455 5.46032C25.7467 10.4734 17.8033 18.8353 11.8203 28.5246C4.90816 39.6738 0.589355 52.5894 0.589355 64.1572C0.589355 74.9492 4.36704 82.5351 10.4726 86.078L22.9798 93.2249C29.1568 97.166 37.8659 96.8086 47.5449 91.234C66.2393 80.5544 81.4215 54.223 81.4215 32.5677C81.4215 21.3368 77.2966 13.5874 70.7112 10.2488Z" fill="#B813F2"/>
<path opacity="0.1" d="M22.7142 93.1639L10.4623 86.1599C4.33635 82.617 0.579102 75.031 0.579102 64.2391C0.579102 52.6611 4.92854 39.7353 11.81 28.6064L24.8992 36.1516C17.9768 47.3111 13.6682 60.196 13.6682 71.7537C13.6172 82.0555 17.0784 89.4373 22.7142 93.1639Z" fill="black"/>
<path opacity="0.4" d="M70.4967 10.1059C64.4524 7.17567 56.3968 7.92101 47.555 13.0158C38.7132 18.1105 30.8719 26.4418 24.8787 36.1311L11.7896 28.5859C17.7726 18.8967 25.7159 10.5348 34.4148 5.52167C43.7058 0.151244 52.1086 -0.359258 58.2346 3.0917L58.3673 3.16318L70.4967 10.1059Z" fill="white"/>
<path d="M65.1772 23.8897L60.4806 21.1738L42.0925 64.515L45.227 66.3222L65.1772 23.8897Z" fill="white"/>
<path d="M38.4886 54.8355L33.792 52.1299L28.7483 62.7993L33.4449 65.5049L38.4886 54.8355Z" fill="white"/>
<path d="M46.4321 79.0335L33.4451 65.5054L38.4888 54.836L45.2273 66.3222L65.1776 23.8896L72.5696 31.0979L46.4321 79.0335Z" fill="#F5F5F5"/>
<path d="M28.7483 62.7998L33.4449 65.5055L46.4319 79.0336L41.7455 76.3484L28.7483 62.7998Z" fill="#E0E0E0"/>
</svg>
