<svg width="24" height="24" viewBox="0 0 24 24" fill="none" xmlns="http://www.w3.org/2000/svg">
<g clip-path="url(#clip0_30228_55138)">
<path opacity="0.2" d="M17.2386 6.68793C17.5826 6.97704 18.0196 7.13599 18.4679 7.13599C19.0367 7.13599 19.5722 6.88649 19.9378 6.45147C20.6169 5.6422 20.5108 4.43113 19.7016 3.75153C19.3571 3.46242 18.9201 3.30322 18.4713 3.30322C17.9027 3.30322 17.3673 3.55272 17.0022 3.98774C16.3228 4.79726 16.4291 6.00808 17.2386 6.68793Z" fill="#3498DB"/>
<path opacity="0.3" d="M21.7629 8.88086C21.6441 8.88086 21.524 8.89144 21.4067 8.91211C20.3031 9.10674 19.563 10.1635 19.7576 11.2676C19.9289 12.2407 20.7691 12.9469 21.7553 12.9469C21.8739 12.9469 21.9945 12.9363 22.1123 12.9159C23.2159 12.721 23.9557 11.6645 23.7611 10.5609C23.5894 9.58752 22.7489 8.88086 21.7629 8.88086Z" fill="#3498DB"/>
<path opacity="0.4" d="M21.6917 15.5286C21.365 15.3396 20.9944 15.2402 20.6204 15.2402C19.8532 15.2402 19.1387 15.6524 18.7556 16.3157C18.4689 16.8125 18.3922 17.3912 18.541 17.9458C18.6899 18.5004 19.0459 18.9642 19.5422 19.2509C19.8692 19.4401 20.2398 19.5398 20.6143 19.5398C21.3809 19.5398 22.0955 19.1279 22.4783 18.4648C23.0703 17.4382 22.7175 16.1211 21.6917 15.5286Z" fill="#3498DB"/>
<path opacity="0.5" d="M15.5787 19.3506C15.3154 19.3506 15.0546 19.3968 14.8036 19.4879C14.2353 19.6948 13.7818 20.1109 13.5259 20.6593C13.2703 21.2078 13.2434 21.8229 13.4501 22.3916C13.7749 23.2837 14.6307 23.8834 15.5794 23.8834C15.8427 23.8834 16.1035 23.8371 16.3538 23.7458C16.9216 23.5389 17.3749 23.1231 17.631 22.5736C17.8869 22.0249 17.914 21.4098 17.7078 20.8422C17.3835 19.9502 16.5275 19.3506 15.5787 19.3506Z" fill="#3498DB"/>
<path opacity="0.6" d="M9.81905 19.3781C9.55479 19.2821 9.28069 19.2334 9.00462 19.2334C8.00714 19.2334 7.10758 19.8638 6.7663 20.802C6.5483 21.4001 6.5766 22.047 6.84553 22.6235C7.11422 23.2003 7.59131 23.6375 8.18946 23.8553C8.45323 23.9515 8.72757 23.9997 9.00438 23.9997C10.0024 23.9997 10.9017 23.3693 11.2427 22.4318C11.4602 21.8349 11.4317 21.188 11.1625 20.611C10.8931 20.0333 10.4162 19.5956 9.81905 19.3781Z" fill="#3498DB"/>
<path opacity="0.7" d="M6.13046 16.1406C5.68511 15.3697 4.85518 14.8911 3.96399 14.8911C3.52823 14.8911 3.0974 15.0073 2.71725 15.226C2.13903 15.5599 1.72567 16.0992 1.55319 16.7432C1.38021 17.3878 1.46879 18.0613 1.80268 18.6392C2.24803 19.4104 3.07821 19.8892 3.9694 19.8892C4.40491 19.8892 4.83575 19.773 5.21565 19.5541C6.4085 18.8654 6.81891 17.3339 6.13046 16.1406Z" fill="#3498DB"/>
<path opacity="0.8" d="M2.82862 13.5302C4.09775 13.5302 5.17963 12.621 5.40059 11.3683C5.52164 10.6801 5.36786 9.98626 4.96705 9.41468C4.56672 8.84236 3.96734 8.46049 3.2789 8.33894C3.12634 8.31236 2.97207 8.29883 2.82124 8.29883C1.55211 8.29883 0.470231 9.20775 0.249277 10.4604C0.128221 11.1481 0.282002 11.842 0.682818 12.4143C1.08339 12.9864 1.68301 13.3685 2.37097 13.4898C2.52278 13.5166 2.67681 13.5302 2.82862 13.5302Z" fill="#3498DB"/>
<path opacity="0.9" d="M6.11482 7.95189C6.7543 7.95189 7.3773 7.72478 7.86916 7.31264C8.4272 6.8444 8.76946 6.18572 8.83318 5.45789C8.89691 4.73007 8.67399 4.02193 8.20551 3.46388C7.68536 2.84383 6.92186 2.48828 6.11137 2.48828C5.4709 2.48828 4.84791 2.71514 4.35679 3.12728C3.79801 3.59626 3.45501 4.25494 3.39153 4.98178C3.32781 5.70813 3.55097 6.41652 4.02019 6.97579C4.54108 7.59609 5.30433 7.95189 6.11482 7.95189Z" fill="#3498DB"/>
<path d="M12.2916 5.94267C13.9326 5.94267 15.2629 4.61236 15.2629 2.97133C15.2629 1.33031 13.9326 0 12.2916 0C10.6506 0 9.32031 1.33031 9.32031 2.97133C9.32031 4.61236 10.6506 5.94267 12.2916 5.94267Z" fill="#3498DB"/>
</g>
<defs>
<clipPath id="clip0_30228_55138">
<rect width="24" height="24" fill="white"/>
</clipPath>
</defs>
</svg>
