<svg width="18" height="18" viewBox="0 0 18 18" fill="none" xmlns="http://www.w3.org/2000/svg">
<path d="M9.5625 11.94H10.05C10.5375 11.94 10.9425 11.505 10.9425 10.98C10.9425 10.3275 10.71 10.2 10.3275 10.065L9.57 9.80249V11.94H9.5625Z" fill="#A7A9AD"/>
<path d="M8.97755 1.42506C4.83755 1.44006 1.48505 4.80756 1.50005 8.94756C1.51505 13.0876 4.88255 16.4401 9.02255 16.4251C13.1625 16.4101 16.515 13.0426 16.5 8.90256C16.4851 4.76256 13.1175 1.41756 8.97755 1.42506ZM10.6951 9.00006C11.2801 9.20256 12.0676 9.63756 12.0676 10.9801C12.0676 12.1351 11.16 13.0651 10.05 13.0651H9.56255V13.5001C9.56255 13.8076 9.30755 14.0626 9.00005 14.0626C8.69255 14.0626 8.43755 13.8076 8.43755 13.5001V13.0651H8.16755C6.93755 13.0651 5.94005 12.0301 5.94005 10.7551C5.94005 10.4476 6.19505 10.1926 6.50255 10.1926C6.81005 10.1926 7.06505 10.4476 7.06505 10.7551C7.06505 11.4076 7.56005 11.9401 8.16755 11.9401H8.43755V9.40506L7.30505 9.00006C6.72005 8.79756 5.93255 8.36256 5.93255 7.02006C5.93255 5.86506 6.84005 4.93506 7.95005 4.93506H8.43755V4.50006C8.43755 4.19256 8.69255 3.93756 9.00005 3.93756C9.30755 3.93756 9.56255 4.19256 9.56255 4.50006V4.93506H9.83255C11.0625 4.93506 12.0601 5.97006 12.0601 7.24506C12.0601 7.55256 11.805 7.80756 11.4976 7.80756C11.1901 7.80756 10.9351 7.55256 10.9351 7.24506C10.9351 6.59256 10.4401 6.06006 9.83255 6.06006H9.56255V8.59506L10.6951 9.00006Z" fill="#A7A9AD"/>
<path d="M7.06445 7.02756C7.06445 7.68006 7.29695 7.80756 7.67945 7.94256L8.43695 8.20506V6.06006H7.94945C7.46195 6.06006 7.06445 6.49506 7.06445 7.02756Z" fill="#A7A9AD"/>
</svg>
