<svg width="34" height="34" viewBox="0 0 34 34" fill="none" xmlns="http://www.w3.org/2000/svg">
<path d="M12.7507 31.1663H21.2507C28.334 31.1663 31.1673 28.333 31.1673 21.2497V12.7497C31.1673 5.66634 28.334 2.83301 21.2507 2.83301H12.7507C5.66732 2.83301 2.83398 5.66634 2.83398 12.7497V21.2497C2.83398 28.333 5.66732 31.1663 12.7507 31.1663Z" stroke="#E5E8E8" stroke-width="2" stroke-linecap="round" stroke-linejoin="round"/>
<path d="M12.7493 14.1667C14.3142 14.1667 15.5827 12.8981 15.5827 11.3333C15.5827 9.76853 14.3142 8.5 12.7493 8.5C11.1845 8.5 9.91602 9.76853 9.91602 11.3333C9.91602 12.8981 11.1845 14.1667 12.7493 14.1667Z" stroke="#E5E8E8" stroke-width="2" stroke-linecap="round" stroke-linejoin="round"/>
<path d="M3.7832 26.8455L10.7674 22.1563C11.8865 21.4055 13.5015 21.4905 14.5074 22.3546L14.9749 22.7655C16.0799 23.7146 17.8649 23.7146 18.9699 22.7655L24.8632 17.708C25.9682 16.7588 27.7532 16.7588 28.8582 17.708L31.1674 19.6913" stroke="#E5E8E8" stroke-width="2" stroke-linecap="round" stroke-linejoin="round"/>
</svg>
