<svg width="19" height="19" viewBox="0 0 19 19" fill="none" xmlns="http://www.w3.org/2000/svg">
<path d="M9.45869 4.96009C6.97024 4.96009 4.96305 6.96773 4.96305 9.45673C4.96305 11.9457 6.97024 13.9534 9.45869 13.9534C11.9471 13.9534 13.9543 11.9457 13.9543 9.45673C13.9543 6.96773 11.9471 4.96009 9.45869 4.96009ZM9.45869 12.3801C7.85059 12.3801 6.53594 11.0691 6.53594 9.45673C6.53594 7.84436 7.84667 6.53333 9.45869 6.53333C11.0707 6.53333 12.3814 7.84436 12.3814 9.45673C12.3814 11.0691 11.0668 12.3801 9.45869 12.3801V12.3801ZM15.1868 4.77615C15.1868 5.35927 14.7173 5.82498 14.1382 5.82498C13.5552 5.82498 13.0896 5.35536 13.0896 4.77615C13.0896 4.19695 13.5591 3.72733 14.1382 3.72733C14.7173 3.72733 15.1868 4.19695 15.1868 4.77615ZM18.1643 5.84063C18.0978 4.43568 17.777 3.19118 16.748 2.16583C15.7228 1.14049 14.4786 0.819581 13.074 0.749138C11.6263 0.666954 7.28717 0.666954 5.83948 0.749138C4.43876 0.815668 3.19453 1.13658 2.1655 2.16192C1.13648 3.18726 0.819552 4.43176 0.749124 5.83672C0.666959 7.28472 0.666959 11.6248 0.749124 13.0728C0.815639 14.4778 1.13648 15.7223 2.1655 16.7476C3.19453 17.773 4.43484 18.0939 5.83948 18.1643C7.28717 18.2465 11.6263 18.2465 13.074 18.1643C14.4786 18.0978 15.7228 17.7769 16.748 16.7476C17.7731 15.7223 18.0939 14.4778 18.1643 13.0728C18.2465 11.6248 18.2465 7.28864 18.1643 5.84063V5.84063ZM16.2941 14.6265C15.9889 15.3935 15.3981 15.9845 14.6273 16.2937C13.4731 16.7515 10.7342 16.6459 9.45869 16.6459C8.18316 16.6459 5.44039 16.7476 4.29007 16.2937C3.52319 15.9884 2.93238 15.3975 2.62328 14.6265C2.1655 13.472 2.27115 10.7325 2.27115 9.45673C2.27115 8.18092 2.16942 5.43754 2.62328 4.28696C2.92847 3.51991 3.51928 2.92897 4.29007 2.6198C5.44431 2.16192 8.18316 2.26759 9.45869 2.26759C10.7342 2.26759 13.477 2.16583 14.6273 2.6198C15.3942 2.92506 15.985 3.516 16.2941 4.28696C16.7519 5.44145 16.6462 8.18092 16.6462 9.45673C16.6462 10.7325 16.7519 13.4759 16.2941 14.6265Z" fill="white"/>
</svg>
