<svg width="55" height="55" viewBox="0 0 55 55" fill="none" xmlns="http://www.w3.org/2000/svg">
<path fill-rule="evenodd" clip-rule="evenodd" d="M37.1717 0H17.8283C16.729 0 15.672 0.436899 14.8969 1.21557L1.21557 14.8933C0.436899 15.672 0 16.7255 0 17.8283V37.1717C0 38.271 0.436899 39.328 1.21557 40.1031L14.8933 53.7809C15.672 54.5596 16.7255 54.9965 17.8248 54.9965H37.1717C38.271 54.9965 39.328 54.5596 40.1031 53.7809L53.7809 40.1031C54.5596 39.3245 54.9965 38.271 54.9965 37.1717V17.8283C54.9965 16.729 54.5596 15.672 53.7809 14.8969L40.1067 1.21557C39.328 0.436899 38.271 0 37.1717 0ZM35.3818 4.86226H19.6182C18.6598 4.86226 17.7437 5.24279 17.0672 5.91928L5.91926 17.0673C5.24277 17.7438 4.86225 18.6598 4.86225 19.6182V35.3818C4.86225 36.3402 5.24277 37.2562 5.91926 37.9327L17.0672 49.0807C17.7437 49.7572 18.6598 50.1377 19.6182 50.1377H35.3818C36.3402 50.1377 37.2562 49.7572 37.9327 49.0807L49.0807 37.9327C49.7572 37.2562 50.1377 36.3402 50.1377 35.3818V30.8296H46.5791V33.8491C46.5791 34.8075 46.1986 35.7236 45.5221 36.4001L36.5762 45.3459C35.8997 46.0224 34.9837 46.403 34.0253 46.403H21.3763C20.418 46.403 19.5019 46.0224 18.8254 45.3459L9.88307 36.4001C9.20658 35.7236 8.82605 34.8075 8.82605 33.8491V21.2002C8.82605 20.2418 9.20658 19.3258 9.88307 18.6493L18.8254 9.70692C19.5019 9.03043 20.418 8.6499 21.3763 8.6499H34.0253C34.9837 8.6499 35.8997 9.03043 36.5762 9.70339L45.5221 18.6493C46.1986 19.3258 46.5791 20.2418 46.5791 21.2002V24.1704H50.1377V19.6182C50.1377 18.6598 49.7572 17.7438 49.0807 17.0673L37.9327 5.91928C37.2562 5.24279 36.3402 4.86226 35.3818 4.86226ZM34.4094 16.6938C30.4632 15.2844 27.3274 16.3767 27.3274 16.3767C25.5305 13.5932 21.7604 14.3684 21.7604 14.3684C21.7604 14.3684 21.9366 14.5093 22.7118 15.4958C23.4869 16.4824 23.6983 17.6099 23.6983 17.6099C23.6983 17.6099 19.7521 18.9135 19.435 23.7758C19.1179 28.6381 21.0205 32.2671 21.0205 32.2671C21.0205 32.2671 20.8444 30.7169 21.7604 28.1096C22.6765 25.5022 25.2486 24.2338 26.1647 23.9167C27.0488 23.6107 27.0468 23.6328 26.9823 24.3632C26.9799 24.3896 26.9775 24.4169 26.975 24.4452C26.9046 25.2556 25.9533 27.4401 25.9533 27.4401C25.9533 27.4401 27.3978 27.1935 28.8424 25.608C30.287 24.0224 30.2518 22.3312 30.1813 21.4856C30.1108 20.64 30.3575 20.7105 30.7451 21.4504C31.1326 22.1903 30.8508 23.3178 30.8508 23.3178C30.8508 23.3178 33.7047 23.952 35.9949 23.952C38.2851 23.952 40.5401 23.9167 40.4696 22.6835C40.3991 21.4504 38.6374 21.098 38.6374 21.098C38.6374 21.098 38.3556 18.1031 34.4094 16.6938ZM23.346 15.3197C23.7335 15.6015 24.1211 16.6586 24.1211 16.6586C23.7335 15.4254 23.346 15.0378 23.346 15.0378C23.346 15.0378 23.3812 15.0378 23.9802 15.073C24.5792 15.1083 25.4248 15.5311 25.4248 15.5311C25.4248 15.5311 25.2134 15.214 24.5087 14.9673C23.804 14.7207 22.7822 14.8616 22.7822 14.8616C22.7822 14.8616 22.9584 15.0378 23.346 15.3197ZM20.4568 22.5426C20.8444 20.6752 22.289 19.2659 22.289 19.2659C20.1045 22.1198 20.2102 25.3261 20.2102 25.3261C20.2102 25.3261 20.0692 24.41 20.4568 22.5426ZM29.4062 22.0141C29.4062 22.0141 29.829 23.3882 28.8425 24.6566C27.8559 25.9251 27.1512 25.9603 27.1512 25.9603C27.1512 25.9603 27.4683 25.3965 27.6093 24.7976C27.7502 24.1986 27.715 23.7406 27.715 23.7406C27.715 23.7406 27.8207 24.4452 27.7854 24.8328C27.7502 25.2204 27.715 25.3261 27.715 25.3261C27.715 25.3261 29.6881 24.4805 29.4062 22.0141ZM18.9417 25.6784C18.9417 25.6784 18.1313 26.665 18.2371 29.2723C18.3428 31.8796 18.7656 33.2889 18.7656 33.2889C18.7656 33.2889 17.7085 34.6278 17.5676 36.6009C17.4267 38.574 17.9904 39.8777 17.9904 39.8777C17.9904 39.8777 18.378 38.6445 19.2941 37.3408C20.2101 36.0372 20.9148 35.262 20.9148 35.262C20.9148 35.262 21.4786 35.0154 22.747 35.1211C24.0154 35.2268 24.8258 35.7201 24.8258 35.7201C24.8258 35.7201 24.2268 34.3107 23.2403 33.7117C22.2537 33.1128 20.9853 33.1832 20.9853 33.1832C20.9853 33.1832 19.3998 32.1967 18.9417 25.6784Z" fill="url(#paint0_linear_30366_32776)"/>
<path fill-rule="evenodd" clip-rule="evenodd" d="M17.9629 39.8066C17.9806 39.8534 17.9911 39.8776 17.9911 39.8776C17.9911 39.8776 18.3787 38.6445 19.2948 37.3408C20.2108 36.0372 20.9155 35.262 20.9155 35.262C20.9155 35.262 21.4793 35.0154 22.7477 35.1211C23.8912 35.2164 24.6625 35.6267 24.8032 35.7066C25.1193 36.0816 25.0731 36.4247 25.0731 36.4247C25.0731 36.4247 24.0865 35.7553 22.9238 35.7553C21.7611 35.7553 21.1974 35.9315 21.1974 35.9315C21.1974 35.9315 20.7041 36.4247 19.7528 37.6579C18.8015 38.8911 18.2025 40.5471 18.2025 40.5471V40.7233C18.2025 40.7233 18.0775 40.3572 17.9629 39.8066Z" fill="#4484DA"/>
<path fill-rule="evenodd" clip-rule="evenodd" d="M31.0284 23.3555C31.6857 23.492 34.0448 23.952 35.9951 23.952C38.2852 23.952 40.5402 23.9167 40.4698 22.6836C41.1744 23.811 40.1174 24.5157 37.4044 24.5509C34.6914 24.5862 30.9707 23.5362 30.9707 23.5362L31.0284 23.3555Z" fill="#7A3BBA"/>
<path fill-rule="evenodd" clip-rule="evenodd" d="M21.0214 32.2671C21.02 32.2543 20.849 30.706 21.7613 28.1096C22.6774 25.5023 25.2495 24.2338 26.1655 23.9167C26.9707 23.638 27.041 23.6315 26.9983 24.1843C26.5181 24.297 25.6511 24.5972 24.4743 25.3965C22.6069 26.665 22.2194 28.0743 21.867 29.5541C21.5147 31.034 21.409 32.7604 21.409 32.7604L21.0214 32.2671C21.0214 32.2671 21.0214 32.2671 21.0214 32.2671Z" fill="#4484DA"/>
<defs>
<linearGradient id="paint0_linear_30366_32776" x1="1.45274" y1="3.33559" x2="63.89" y2="23.9066" gradientUnits="userSpaceOnUse">
<stop offset="0.14828" stop-color="#7A3BBA"/>
<stop offset="1" stop-color="#4484DA"/>
</linearGradient>
</defs>
</svg>
