<svg width="19" height="16" viewBox="0 0 19 16" fill="none" xmlns="http://www.w3.org/2000/svg">
<path d="M16.4232 4.51741C16.4343 4.67726 16.4343 4.83715 16.4343 4.99699C16.4343 9.87257 12.8176 15.4904 6.20724 15.4904C4.17071 15.4904 2.27888 14.8852 0.6875 13.8348C0.976851 13.869 1.25504 13.8804 1.55552 13.8804C3.2359 13.8804 4.78278 13.2981 6.01805 12.3047C4.4378 12.2704 3.1135 11.2085 2.65723 9.74699C2.87982 9.78123 3.10237 9.80407 3.33609 9.80407C3.65881 9.80407 3.98156 9.75838 4.28201 9.67849C2.635 9.33591 1.39969 7.85156 1.39969 6.05889V6.01323C1.8782 6.28727 2.43467 6.45854 3.02444 6.48135C2.05626 5.81908 1.42196 4.68869 1.42196 3.40983C1.42196 2.72475 1.59998 2.09674 1.9116 1.54866C3.68104 3.78664 6.34076 5.24815 9.32317 5.40804C9.26754 5.134 9.23414 4.84857 9.23414 4.56311C9.23414 2.53063 10.8367 0.875 12.8287 0.875C13.8636 0.875 14.7984 1.32031 15.455 2.03966C16.2673 1.87981 17.0463 1.57151 17.7363 1.14904C17.4692 2.00543 16.9017 2.72478 16.1561 3.18148C16.8794 3.10159 17.5805 2.89602 18.226 2.61059C17.7364 3.34133 17.1243 3.99214 16.4232 4.51741V4.51741Z" fill="white"/>
</svg>
