<svg width="24" height="24" viewBox="0 0 24 24" fill="none" xmlns="http://www.w3.org/2000/svg">
<path d="M0 12C0 5.37258 5.37258 0 12 0V0C18.6274 0 24 5.37258 24 12V12C24 18.6274 18.6274 24 12 24V24C5.37258 24 0 18.6274 0 12V12Z" fill="#2E3348"/>
<g clip-path="url(#clip0_5_15597)">
<path d="M16.5009 14.3356C16.5009 15.286 16.1573 16.0511 15.4698 16.6309C14.7824 17.2047 14.102 17.5484 12.8647 17.662V19.5H11.0726V17.6979C9.61417 17.668 8.61692 17.4109 7.51706 16.9269V14.5599C8.03704 14.8168 8.66175 15.044 9.3909 15.2412C10.1261 15.4384 10.4986 15.555 11.0725 15.5909V12.8115L10.7536 12.5783C9.5702 12.112 8.7304 11.607 8.23424 11.0631C7.74414 10.5132 7.49902 9.8348 7.49902 9.02783C7.49902 8.16111 7.83675 7.44986 8.5122 6.89393C9.19357 6.3321 9.85915 5.99141 11.0725 5.87188V4.50012H12.8646V5.83607C14.2334 5.89585 15.1888 6.17085 16.2945 6.66095L15.4518 8.7589C14.5194 8.37635 13.8449 8.14321 12.8646 8.05962V10.7046C14.0301 11.1529 14.576 11.5415 15.0663 11.8702C15.5624 12.1989 15.924 12.5606 16.1512 12.9551C16.3842 13.3495 16.5009 13.8097 16.5009 14.3356H16.5009ZM13.8021 14.4702C13.8021 14.2192 13.7004 14.007 13.4972 13.8337C13.2939 13.6603 13.2709 13.481 12.8646 13.2956V15.5282C13.6775 15.3906 13.8021 15.038 13.8021 14.4702V14.4702ZM10.1979 9.02783C10.1979 9.29086 10.2875 9.50906 10.4668 9.68228C10.6522 9.8496 10.6661 10.023 11.0725 10.2023V8.09542C10.3013 8.20905 10.1979 8.51983 10.1979 9.02783" fill="white"/>
</g>
<defs>
<clipPath id="clip0_5_15597">
<rect width="15" height="15" fill="white" transform="translate(4.5 4.5)"/>
</clipPath>
</defs>
</svg>
