<svg width="30" height="30" viewBox="0 0 30 30" fill="none" xmlns="http://www.w3.org/2000/svg">
<path d="M6.07148 14.2855C5.93298 14.0454 5.74855 13.835 5.52872 13.6662C5.30888 13.4974 5.05796 13.3736 4.79026 13.3017C4.52257 13.2299 4.24335 13.2115 3.96855 13.2476C3.69375 13.2837 3.42874 13.3736 3.18867 13.5121C2.9486 13.6506 2.73816 13.835 2.56936 14.0548C2.40057 14.2747 2.27672 14.5256 2.2049 14.7933C2.13308 15.061 2.11469 15.3402 2.15078 15.615C2.18687 15.8898 2.27673 16.1548 2.41523 16.3949L6.75117 23.9066C7.88152 25.8216 9.72217 27.213 11.8729 27.7782C14.0236 28.3433 16.3105 28.0366 18.2363 26.9247C20.1621 25.8128 21.571 23.9856 22.1568 21.8404C22.7426 19.6952 22.4578 17.4055 21.3645 15.4691L19.3723 12.0121C19.0754 11.5643 18.6188 11.2467 18.0958 11.1241C17.5727 11.0014 17.0226 11.083 16.5576 11.3521C16.0926 11.6212 15.7479 12.0576 15.5936 12.5722C15.4394 13.0869 15.4874 13.641 15.7277 14.1214" stroke="#E5E8E8" stroke-width="1.5" stroke-linecap="round" stroke-linejoin="round"/>
<path d="M12.5402 17.051L8.08711 9.34004C7.94861 9.09997 7.76417 8.88952 7.54434 8.72073C7.32451 8.55193 7.07358 8.42809 6.80589 8.35627C6.53819 8.28445 6.25897 8.26606 5.98417 8.30215C5.70937 8.33824 5.44437 8.4281 5.2043 8.5666C4.96422 8.7051 4.75378 8.88954 4.58499 9.10937C4.41619 9.3292 4.29235 9.58013 4.22053 9.84782C4.14871 10.1155 4.13032 10.3947 4.16641 10.6695C4.20249 10.9443 4.29236 11.2093 4.43086 11.4494L8.88398 19.1604" stroke="#E5E8E8" stroke-width="1.5" stroke-linecap="round" stroke-linejoin="round"/>
<path d="M17.6027 17.3791L12.6809 8.84786C12.4011 8.36301 11.9403 8.00914 11.3996 7.86409C10.859 7.71904 10.2829 7.7947 9.79805 8.07442C9.3132 8.35414 8.95933 8.81501 8.81428 9.35564C8.66924 9.89627 8.74489 10.4724 9.02461 10.9572" stroke="#E5E8E8" stroke-width="1.5" stroke-linecap="round" stroke-linejoin="round"/>
<path d="M11.6027 7.93379L10.3957 5.83614C10.116 5.35129 9.65512 4.99742 9.11449 4.85237C8.57385 4.70732 7.99774 4.78298 7.5129 5.0627C7.02805 5.34242 6.67417 5.80329 6.52913 6.34392C6.38408 6.88455 6.45974 7.46066 6.73946 7.94551L7.02071 8.42598" stroke="#E5E8E8" stroke-width="1.5" stroke-linecap="round" stroke-linejoin="round"/>
<path d="M22.0324 22.4416C23.4627 21.1465 24.4066 19.4008 24.7072 17.4949C25.0078 15.5889 24.647 13.6375 23.6848 11.965L21.6926 8.51973C21.5541 8.27965 21.3696 8.06921 21.1498 7.90042C20.93 7.73162 20.679 7.60778 20.4114 7.53596C20.1437 7.46414 19.8644 7.44575 19.5896 7.48183C19.3148 7.51792 19.0498 7.60779 18.8098 7.74629C18.5697 7.88479 18.3593 8.06923 18.1905 8.28906C18.0217 8.50889 17.8978 8.75982 17.826 9.02751C17.7542 9.2952 17.7358 9.57442 17.7719 9.84922C17.808 10.124 17.8978 10.389 18.0363 10.6291" stroke="#E5E8E8" stroke-width="1.5" stroke-linecap="round" stroke-linejoin="round"/>
<path d="M18.3059 11.0979L14.9895 5.35567C14.7097 4.87082 14.2489 4.51695 13.7082 4.3719C13.1676 4.22685 12.5915 4.30251 12.1066 4.58223C11.6218 4.86195 11.2679 5.32282 11.1229 5.86345C10.9778 6.40409 11.0535 6.9802 11.3332 7.46504" stroke="#E5E8E8" stroke-width="1.5" stroke-linecap="round" stroke-linejoin="round"/>
<path d="M20.7187 1.32422L20.2383 3.12891" stroke="#E5E8E8" stroke-width="1.5" stroke-linecap="round" stroke-linejoin="round"/>
<path d="M24.2695 2.97656L23.1914 4.51172" stroke="#E5E8E8" stroke-width="1.5" stroke-linecap="round" stroke-linejoin="round"/>
<path d="M27.0234 5.73047L25.4883 6.80859" stroke="#E5E8E8" stroke-width="1.5" stroke-linecap="round" stroke-linejoin="round"/>
</svg>
