<svg width="94" height="19" viewBox="0 0 94 19" fill="none" xmlns="http://www.w3.org/2000/svg">
<g clip-path="url(#clip0_32078_73624)">
<path fill-rule="evenodd" clip-rule="evenodd" d="M12.8311 0H6.15408C5.77462 0 5.40975 0.150929 5.14219 0.419923L0.419597 5.14497C0.150811 5.41397 0 5.7779 0 6.15887V12.8411C0 13.2209 0.150811 13.586 0.419597 13.8538L5.14097 18.5789C5.40975 18.8479 5.7734 18.9988 6.15287 18.9988H12.8311C13.2106 18.9988 13.5755 18.8479 13.843 18.5789L18.5644 13.8538C18.8332 13.5848 18.984 13.2209 18.984 12.8411V6.15887C18.984 5.77912 18.8332 5.41396 18.5644 5.14619L13.8443 0.419923C13.5755 0.150929 13.2106 0 12.8311 0ZM12.2133 1.67969H6.77192C6.4411 1.67969 6.12489 1.81115 5.89137 2.04484L2.04325 5.89596C1.80973 6.12966 1.67838 6.44612 1.67838 6.77719V12.2228C1.67838 12.5539 1.80973 12.8703 2.04325 13.104L5.89137 16.9552C6.12489 17.1889 6.4411 17.3203 6.77192 17.3203H12.2133C12.5441 17.3203 12.8603 17.1889 13.0938 16.9552L16.942 13.104C17.1755 12.8703 17.3068 12.5539 17.3068 12.2228V10.6502H16.0784V11.6933C16.0784 12.0244 15.9471 12.3409 15.7136 12.5746L12.6256 15.665C12.3921 15.8987 12.0759 16.0301 11.745 16.0301H7.37881C7.048 16.0301 6.73178 15.8987 6.49827 15.665L3.41149 12.5746C3.17798 12.3409 3.04663 12.0244 3.04663 11.6933V7.3237C3.04663 6.99263 3.17798 6.67617 3.41149 6.44247L6.49827 3.3533C6.73178 3.1196 7.048 2.98815 7.37881 2.98815H11.745C12.0759 2.98815 12.3921 3.1196 12.6256 3.35208L15.7136 6.44247C15.9471 6.67617 16.0784 6.99263 16.0784 7.3237V8.34977H17.3068V6.77719C17.3068 6.44612 17.1755 6.12966 16.942 5.89596L13.0938 2.04484C12.8603 1.81115 12.5441 1.67969 12.2133 1.67969ZM11.8776 5.76695C10.5155 5.28008 9.43302 5.6574 9.43302 5.6574C8.81275 4.69584 7.51139 4.96361 7.51139 4.96361C7.51139 4.96361 7.57221 5.0123 7.83977 5.35311C8.10734 5.69392 8.18032 6.08341 8.18032 6.08341C8.18032 6.08341 6.81815 6.53376 6.70869 8.21345C6.59923 9.89315 7.25599 11.1468 7.25599 11.1468C7.25599 11.1468 7.19518 10.6113 7.51139 9.71057C7.82761 8.80987 8.71545 8.37169 9.03167 8.26214C9.33685 8.15642 9.33618 8.16407 9.31389 8.41637C9.31308 8.4255 9.31225 8.43495 9.3114 8.44472C9.28708 8.72467 8.9587 9.47931 8.9587 9.47931C8.9587 9.47931 9.45735 9.39411 9.956 8.84638C10.4546 8.29866 10.4425 7.71442 10.4182 7.4223C10.3938 7.13017 10.479 7.15452 10.6128 7.41012C10.7465 7.66573 10.6492 8.05522 10.6492 8.05522C10.6492 8.05522 11.6344 8.27431 12.4249 8.27431C13.2155 8.27431 13.9939 8.26214 13.9695 7.83613C13.9452 7.41012 13.3371 7.28841 13.3371 7.28841C13.3371 7.28841 13.2398 6.25381 11.8776 5.76695ZM8.0587 5.29225C8.19248 5.38962 8.32627 5.75477 8.32627 5.75477C8.19248 5.32876 8.0587 5.19488 8.0587 5.19488C8.0587 5.19488 8.07086 5.19488 8.27762 5.20705C8.48438 5.21922 8.77627 5.36528 8.77627 5.36528C8.77627 5.36528 8.7033 5.25573 8.46005 5.17053C8.21681 5.08533 7.8641 5.13402 7.8641 5.13402C7.8641 5.13402 7.92491 5.19488 8.0587 5.29225ZM7.0614 7.78744C7.19519 7.14235 7.69384 6.65548 7.69384 6.65548C6.93978 7.64138 6.97627 8.74901 6.97627 8.74901C6.97627 8.74901 6.92762 8.43254 7.0614 7.78744ZM10.1506 7.60487C10.1506 7.60487 10.2965 8.07956 9.95601 8.51774C9.61547 8.95593 9.37222 8.9681 9.37222 8.9681C9.37222 8.9681 9.48168 8.77335 9.53033 8.56643C9.57898 8.35951 9.56682 8.20128 9.56682 8.20128C9.56682 8.20128 9.6033 8.44472 9.59114 8.5786C9.57898 8.71249 9.56682 8.74901 9.56682 8.74901C9.56682 8.74901 10.2479 8.45689 10.1506 7.60487ZM6.53842 8.87073C6.53842 8.87073 6.25869 9.21153 6.29517 10.1122C6.33166 11.0129 6.4776 11.4998 6.4776 11.4998C6.4776 11.4998 6.11274 11.9623 6.06409 12.6439C6.01544 13.3256 6.21004 13.7759 6.21004 13.7759C6.21004 13.7759 6.34382 13.3499 6.66004 12.8996C6.97626 12.4492 7.2195 12.1814 7.2195 12.1814C7.2195 12.1814 7.4141 12.0962 7.85194 12.1327C8.28978 12.1693 8.56951 12.3397 8.56951 12.3397C8.56951 12.3397 8.36275 11.8528 8.02221 11.6459C7.68166 11.439 7.24382 11.4633 7.24382 11.4633C7.24382 11.4633 6.69653 11.1225 6.53842 8.87073Z" fill="#E5E8E8"/>
<path fill-rule="evenodd" clip-rule="evenodd" d="M6.19922 13.7517C6.20534 13.7679 6.20896 13.7763 6.20896 13.7763C6.20896 13.7763 6.34274 13.3503 6.65896 12.8999C6.97518 12.4496 7.21842 12.1818 7.21842 12.1818C7.21842 12.1818 7.41302 12.0966 7.85086 12.1331C8.2456 12.166 8.51182 12.3078 8.56041 12.3354C8.6695 12.4649 8.65355 12.5835 8.65355 12.5835C8.65355 12.5835 8.31301 12.3522 7.91166 12.3522C7.5103 12.3522 7.31571 12.4131 7.31571 12.4131C7.31571 12.4131 7.14544 12.5835 6.81706 13.0095C6.48868 13.4355 6.28192 14.0076 6.28192 14.0076V14.0684C6.28192 14.0684 6.23878 13.942 6.19922 13.7517Z" fill="#E5E8E8"/>
<path fill-rule="evenodd" clip-rule="evenodd" d="M10.7113 8.06806C10.9382 8.11523 11.7525 8.27411 12.4257 8.27411C13.2163 8.27411 13.9947 8.26194 13.9703 7.83594C14.2136 8.22542 13.8487 8.46885 12.9122 8.48102C11.9757 8.4932 10.6914 8.13048 10.6914 8.13048L10.7113 8.06806Z" fill="#E5E8E8"/>
<path fill-rule="evenodd" clip-rule="evenodd" d="M7.25469 11.1471C7.25419 11.1427 7.19519 10.6078 7.5101 9.71088C7.82632 8.81018 8.71416 8.372 9.03038 8.26245C9.30831 8.16617 9.33257 8.16391 9.31785 8.35487C9.15206 8.39381 8.8528 8.49753 8.44659 8.77366C7.802 9.21184 7.66821 9.69871 7.54659 10.2099C7.42497 10.7211 7.38848 11.3175 7.38848 11.3175L7.25469 11.1471C7.25469 11.1471 7.25469 11.1471 7.25469 11.1471Z" fill="#E5E8E8"/>
</g>
<path d="M92.6094 13.4386V5.56055H93.9985V13.4386H92.6094Z" fill="#E5E8E8"/>
<path fill-rule="evenodd" clip-rule="evenodd" d="M77.793 8.80445V13.4386H82.8866V12.2164H78.9532V10.0088H82.4235V8.81416H78.9532V8.80445H77.793ZM77.793 6.71908H82.8866V5.56055H77.793V6.71908Z" fill="#E5E8E8"/>
<path d="M68.5312 5.56055H71.5602C72.2793 5.56055 72.9384 5.73488 73.5377 6.08355C74.1369 6.43222 74.6091 6.90934 74.9541 7.51492C75.3027 8.11683 75.4771 8.7793 75.4771 9.50232C75.4771 10.2253 75.3027 10.8878 74.9541 11.4897C74.6091 12.0916 74.1369 12.5669 73.5377 12.9156C72.9384 13.2643 72.2793 13.4386 71.5602 13.4386H68.5312V5.56055ZM71.5602 12.288C72.0505 12.288 72.5008 12.165 72.9112 11.9191C73.3252 11.6732 73.6503 11.3374 73.8863 10.9117C74.126 10.4859 74.2459 10.0161 74.2459 9.50232C74.2459 8.9885 74.126 8.51871 73.8863 8.09297C73.6503 7.66356 73.327 7.32591 72.9166 7.08C72.5062 6.8341 72.0541 6.71115 71.5602 6.71115H69.7624V12.288H71.5602Z" fill="#E5E8E8"/>
<path d="M32.875 5.56055H34.1328V12.288H37.5055V13.4386H32.875V5.56055Z" fill="#E5E8E8"/>
<path d="M28.1248 13.4386C27.3744 13.4386 26.6899 13.2668 26.0713 12.9231C25.4526 12.5758 24.9658 12.1014 24.6107 11.5C24.2557 10.8985 24.0781 10.2326 24.0781 9.50226C24.0781 8.77191 24.2557 8.10601 24.6107 7.50455C24.9658 6.90309 25.4526 6.42873 26.0713 6.08145C26.6899 5.73418 27.3744 5.56055 28.1248 5.56055C28.6592 5.56055 29.1845 5.67153 29.7007 5.8935C30.2168 6.11547 30.6451 6.40904 30.9855 6.77421L30.6945 7.07494C30.6103 7.16086 30.5133 7.22888 30.4035 7.279C30.2937 7.32555 30.182 7.34882 30.0685 7.34882C29.9331 7.34882 29.8141 7.31839 29.7116 7.25752C29.481 7.1 29.2285 6.97648 28.9539 6.88698C28.683 6.79748 28.4067 6.75273 28.1248 6.75273C27.605 6.75273 27.131 6.87266 26.7027 7.11253C26.2744 7.3524 25.9358 7.68356 25.6869 8.10601C25.4417 8.52488 25.319 8.9903 25.319 9.50226C25.319 10.0142 25.4417 10.4796 25.6869 10.8985C25.9358 11.3174 26.2744 11.6467 26.7027 11.8866C27.131 12.1265 27.605 12.2464 28.1248 12.2464C28.4103 12.2464 28.6904 12.2017 28.9649 12.1122C29.2394 12.0227 29.492 11.8956 29.7226 11.7309C29.8434 11.6593 29.9734 11.6235 30.1125 11.6235C30.2259 11.6235 30.3358 11.6467 30.4419 11.6933C30.5481 11.7398 30.6432 11.8043 30.7274 11.8866L31.0239 12.1873C30.6835 12.5668 30.2516 12.8711 29.7281 13.1003C29.2083 13.3258 28.6739 13.4386 28.1248 13.4386Z" fill="#E5E8E8"/>
<path fill-rule="evenodd" clip-rule="evenodd" d="M50.741 5.56055L47.3079 13.2765L47.2305 13.4389H48.6196L48.6454 13.3693L51.1664 7.64591L53.6874 13.3693L53.7132 13.4389H55.1024L55.025 13.2765L51.5919 5.56055H50.741Z" fill="#E5E8E8"/>
<path fill-rule="evenodd" clip-rule="evenodd" d="M63.9007 10.5696V5.56055H62.674V8.72122L63.9007 10.5696ZM62.8548 11.5062H62.8484L59.0973 5.94592C58.9991 5.80278 58.8937 5.70368 58.781 5.64863C58.672 5.58991 58.5375 5.56055 58.3776 5.56055H57.418V13.4386H58.6447L58.6502 8.0159C58.6502 7.72595 58.5975 7.45069 58.4921 7.19011H58.5193L62.5377 13.1578C62.5994 13.2459 62.6667 13.3156 62.7394 13.367C62.8157 13.4147 62.8902 13.4386 62.9629 13.4386H63.9007V13.0821L62.8548 11.5062Z" fill="#E5E8E8"/>
<path fill-rule="evenodd" clip-rule="evenodd" d="M39.8203 8.80445V13.4386H44.9139V12.2164H40.9805V10.0088H44.4509V8.81416H40.9805V8.80445H39.8203ZM39.8203 6.71908H44.9139V5.56055H39.8203V6.71908Z" fill="#E5E8E8"/>
<path fill-rule="evenodd" clip-rule="evenodd" d="M90.2967 5.56055H85.2031V6.71908H90.2967V5.56055ZM89.6649 9.03616H85.2031V13.4386H86.4667V10.2125H89.6649V9.03616Z" fill="#E5E8E8"/>
<defs>
<clipPath id="clip0_32078_73624">
<rect width="18.9852" height="19" fill="white"/>
</clipPath>
</defs>
</svg>
