<svg width="30" height="30" viewBox="0 0 30 30" fill="none" xmlns="http://www.w3.org/2000/svg">
<path d="M5.32063 20.7419C3.92479 18.3869 3.43655 15.6034 3.94755 12.914C4.45855 10.2245 5.93367 7.81404 8.09596 6.13511C10.2583 4.45617 12.959 3.62423 15.6912 3.79546C18.4234 3.96668 20.9992 5.12931 22.935 7.06507C24.8707 9.00083 26.0334 11.5766 26.2046 14.3088C26.3758 17.041 25.5439 19.7418 23.8649 21.9041C22.186 24.0664 19.7755 25.5415 17.0861 26.0525C14.3966 26.5635 11.6131 26.0752 9.25813 24.6794L5.3675 25.781C5.2081 25.8276 5.0391 25.8305 4.8782 25.7893C4.7173 25.7482 4.57043 25.6645 4.453 25.547C4.33556 25.4296 4.25188 25.2827 4.21072 25.1218C4.16956 24.9609 4.17245 24.7919 4.21907 24.6325L5.32063 20.7419Z" stroke="#E5E8E8" stroke-width="1.5" stroke-linecap="round" stroke-linejoin="round"/>
</svg>
