<svg width="30" height="30" viewBox="0 0 30 30" fill="none" xmlns="http://www.w3.org/2000/svg">
<path d="M7.5 18.75C9.57107 18.75 11.25 17.0711 11.25 15C11.25 12.9289 9.57107 11.25 7.5 11.25C5.42893 11.25 3.75 12.9289 3.75 15C3.75 17.0711 5.42893 18.75 7.5 18.75Z" stroke="#E5E8E8" stroke-width="1.5" stroke-linecap="round" stroke-linejoin="round"/>
<path d="M20.625 27.1875C22.6961 27.1875 24.375 25.5086 24.375 23.4375C24.375 21.3664 22.6961 19.6875 20.625 19.6875C18.5539 19.6875 16.875 21.3664 16.875 23.4375C16.875 25.5086 18.5539 27.1875 20.625 27.1875Z" stroke="#E5E8E8" stroke-width="1.5" stroke-linecap="round" stroke-linejoin="round"/>
<path d="M20.625 10.3125C22.6961 10.3125 24.375 8.63357 24.375 6.5625C24.375 4.49143 22.6961 2.8125 20.625 2.8125C18.5539 2.8125 16.875 4.49143 16.875 6.5625C16.875 8.63357 18.5539 10.3125 20.625 10.3125Z" stroke="#E5E8E8" stroke-width="1.5" stroke-linecap="round" stroke-linejoin="round"/>
<path d="M17.4727 8.58984L10.6523 12.9727" stroke="#E5E8E8" stroke-width="1.5" stroke-linecap="round" stroke-linejoin="round"/>
<path d="M10.6523 17.0273L17.4727 21.4102" stroke="#E5E8E8" stroke-width="1.5" stroke-linecap="round" stroke-linejoin="round"/>
</svg>
