<svg width="24" height="24" viewBox="0 0 24 24" fill="none" xmlns="http://www.w3.org/2000/svg">
<path d="M8.68006 12.7201H10.4201V16.7701C10.4201 17.3701 11.1601 17.6501 11.5601 17.2001L15.8201 12.3601C16.1901 11.9401 15.8901 11.2801 15.3301 11.2801H13.5901V7.23008C13.5901 6.63008 12.8501 6.35008 12.4501 6.80008L8.19006 11.6401C7.82006 12.0601 8.12006 12.7201 8.68006 12.7201Z" stroke="#A7A9AD" stroke-width="1.5" stroke-miterlimit="10" stroke-linecap="round" stroke-linejoin="round"/>
<path d="M9 22H15C20 22 22 20 22 15V9C22 4 20 2 15 2H9C4 2 2 4 2 9V15C2 20 4 22 9 22Z" stroke="#A7A9AD" stroke-width="1.5" stroke-linecap="round" stroke-linejoin="round"/>
</svg>
